<?xml version="1.0" encoding="UTF-8" standalone="no"?>
<!-- Created with Inkscape (http://www.inkscape.org/) -->

<svg
   width="210mm"
   height="297mm"
   viewBox="0 0 210 297"
   version="1.1"
   id="svg1"
   inkscape:version="1.4 (e7c3feb1, 2024-10-09)"
   sodipodi:docname="placeholder.svg"
   inkscape:export-filename="../furto/assets/characters/placeholder/placeholder.png"
   inkscape:export-xdpi="96"
   inkscape:export-ydpi="96"
   xmlns:inkscape="http://www.inkscape.org/namespaces/inkscape"
   xmlns:sodipodi="http://sodipodi.sourceforge.net/DTD/sodipodi-0.dtd"
   xmlns:xlink="http://www.w3.org/1999/xlink"
   xmlns="http://www.w3.org/2000/svg"
   xmlns:svg="http://www.w3.org/2000/svg">
  <sodipodi:namedview
     id="namedview1"
     pagecolor="#505050"
     bordercolor="#eeeeee"
     borderopacity="1"
     inkscape:showpageshadow="0"
     inkscape:pageopacity="0"
     inkscape:pagecheckerboard="0"
     inkscape:deskcolor="#505050"
     inkscape:document-units="mm"
     inkscape:zoom="0.26205012"
     inkscape:cx="-10383.51"
     inkscape:cy="-2478.5335"
     inkscape:window-width="1920"
     inkscape:window-height="1022"
     inkscape:window-x="1728"
     inkscape:window-y="30"
     inkscape:window-maximized="0"
     inkscape:current-layer="layer1" />
  <defs
     id="defs1">
    <linearGradient
       id="linearGradient42"
       inkscape:collect="always">
      <stop
         style="stop-color:#141645;stop-opacity:0.82635981;"
         offset="0"
         id="stop42" />
      <stop
         style="stop-color:#65859a;stop-opacity:0.374477;"
         offset="1"
         id="stop43" />
    </linearGradient>
    <linearGradient
       inkscape:collect="always"
       xlink:href="#linearGradient42"
       id="linearGradient43"
       x1="-2952.2661"
       y1="-752.42944"
       x2="-2696.2661"
       y2="-752.42944"
       gradientUnits="userSpaceOnUse"
       gradientTransform="translate(2071.8367,3576.6956)" />
  </defs>
  <g
     inkscape:label="Layer 1"
     inkscape:groupmode="layer"
     id="layer1">
    <rect
       style="fill:#ffffff;stroke:#1a1a1a;stroke-width:0.821491;stroke-linecap:round;stroke-linejoin:round;paint-order:markers stroke fill"
       id="rect1"
       width="1919.1785"
       height="1079.1785"
       x="-2296.1272"
       y="-1724.9739"
       inkscape:export-filename="../furto/assets/locations/placeholder/placeholder.png"
       inkscape:export-xdpi="96"
       inkscape:export-ydpi="96" />
    <text
       xml:space="preserve"
       style="font-weight:bold;font-size:253.66px;font-family:Roboto;-inkscape-font-specification:'Roboto Bold';text-align:center;writing-mode:lr-tb;direction:ltr;text-anchor:middle;fill:#ffffff;stroke:#1a1a1a;stroke-width:11.2349;stroke-linecap:round;stroke-linejoin:round;paint-order:markers stroke fill"
       x="-2584.6038"
       y="-270.86728"
       id="text1"
       transform="matrix(0.5839754,0.24448826,-0.50175148,1.5023367,0,0)"><tspan
         sodipodi:role="line"
         id="tspan1"
         style="fill:#ff0000;stroke-width:11.2349"
         x="-2584.6038"
         y="-270.86728">PLACEHOLDER SCENARIO</tspan></text>
    <rect
       style="fill:#f9f9f9;stroke:#1a1a1a;stroke-width:1;stroke-linecap:round;stroke-linejoin:round;paint-order:markers stroke fill"
       id="rect2"
       width="533.10413"
       height="706.76678"
       x="-1902.2123"
       y="-488.67877"
       inkscape:export-filename="../furto/assets/characters/placeholder/placeholder.png"
       inkscape:export-xdpi="96"
       inkscape:export-ydpi="96" />
    <path
       id="path14"
       style="baseline-shift:baseline;display:inline;overflow:visible;vector-effect:none;fill:#1a1a1a;stroke-width:1.19478;stroke-linecap:round;stroke-linejoin:round;paint-order:markers stroke fill;enable-background:accumulate;stop-color:#000000;stop-opacity:1"
       d="m -1629.8735,-76.770379 c 0,4.57e-4 -0.1796,0.01696 -0.2079,0.0255 -0.057,0.01732 -0.065,0.02418 -0.078,0.03043 -0.055,0.02502 -0.071,0.03428 -0.1104,0.05653 -0.058,0.03248 -0.1714,0.09815 -0.2809,0.16224 -1.4138,0.344639 -3.9837,0.180787 -6.1237,0.284064 -1.0787,0.05208 -2.0553,0.158775 -2.8253,0.55694 -0.385,0.199083 -0.7303,0.494044 -0.9255,0.906897 -0.1952,0.412852 -0.2162,0.9052 -0.092,1.407267 0.1474,0.59738 0.6368,1.034554 1.1701,1.188482 0.2121,0.06122 0.4659,-0.006 0.6931,0.0024 -10.0531,5.064514 -20.6059,9.296588 -30.3484,15.148075 -25.3597,15.231504 -47.424,36.675807 -69.582,55.9254082 -6.4279,5.5843434 -15.472,10.8232313 -21.6004,17.0345868 -0.2759,0.279597 -0.3623,0.675029 -0.3502,0.977756 0.012,0.302727 0.089,0.559001 0.1533,0.789416 0.064,0.230414 0.1196,0.433956 0.1344,0.570616 0.015,0.136661 5e-4,0.170089 -0.012,0.183368 -1.8531,2.817369 -6.6552,7.34112 -10.9686,11.582027 -2.1568,2.120453 -4.1956,4.180802 -5.714,5.981529 -0.7591,0.900364 -1.3879,1.735412 -1.8405,2.496915 -0.4524,0.761503 -0.7506,1.444757 -0.7506,2.133286 a 0.59338816,0.60142194 0 0 0 0.593,0.601696 0.59338816,0.60142194 0 0 0 0.5937,-0.601696 c 0,-0.293485 0.1815,-0.842847 0.5796,-1.512942 0.3981,-0.670096 0.9927,-1.465095 1.7264,-2.335302 1.4674,-1.740413 3.4906,-3.788449 5.6397,-5.901346 4.2981,-4.225792 9.0838,-8.668447 11.1286,-11.777204 0.2128,-0.323554 0.233,-0.689639 0.2012,-0.982108 -0.032,-0.292468 -0.1092,-0.54661 -0.1711,-0.767659 -0.062,-0.221051 -0.102,-0.40921 -0.1068,-0.510323 v -0.07708 c 5.9495,-6.029912 14.9679,-11.2682462 21.5331,-16.97180587 22.1929,-19.27994913 44.216,-40.67051213 69.4151,-55.80544013 11.7507,-7.05765 24.847,-11.769262 36.8712,-18.638908 0.2941,-0.157356 0.6885,-0.345962 0.9181,-0.474883 3.8829,7.903021 7.5239,15.958166 11.7143,23.744608 2.314,4.299914 6.2645,7.975408 10.359,11.497491 4.0945,3.522084 8.3418,6.891779 11.2746,10.458824 9.4901,11.542321 19.0931,25.6249431 26.2989,38.770854 3.4072,6.21604 4.5877,14.844085 7.1533,21.777915 a 0.5934475,0.60148208 0 0 0 0,0.01429 l 4.791,12.14332 a 0.5934475,0.60148208 0 0 0 0.058,0.110638 c 1.6378,2.489676 3.6647,4.642154 4.7425,7.191138 5.0487,11.939854 6.9474,20.297089 14.4287,31.671085 a 0.59338816,0.60142194 0 0 0 0.8231,0.166594 0.59338816,0.60142194 0 0 0 0.1643,-0.834172 c -7.3839,-11.225856 -9.242,-19.45283 -14.3269,-31.478399 -1.184,-2.800162 -3.2569,-4.989886 -4.8117,-7.341563 l -4.7634,-12.063134 v -0.01 -0.0043 c -2.4888,-6.733513 -3.6508,-15.411688 -7.2227,-21.9283398 -7.2485,-13.2236145 -16.8825,-27.3507722 -26.4246,-38.9560932 -3.0567,-3.717906 -7.3485,-7.104212 -11.418,-10.604897 -4.0697,-3.500673 -7.908,-7.114268 -10.0849,-11.159336 -4.1732,-7.754542 -7.8155,-15.814956 -11.7199,-23.758284 0.012,-0.006 0.019,-0.01083 0.037,-0.0261 0.012,-0.0084 0.046,-0.04426 0.046,-0.04475 4e-4,-4.33e-4 0.1433,-0.2366 0.1435,-0.236828 10e-5,-2.29e-4 -0.5235,-0.789415 -0.5238,-0.789427 z m -3.1339,1.578203 c -1.255,0.02791 -2.4646,0.125432 -3.6128,0.180884 -1.018,0.0492 -1.8882,0.193285 -2.3415,0.427659 -0.2266,0.117157 -0.3368,0.233279 -0.3938,0.354923 -0.058,0.121643 -0.088,0.289139 -0.012,0.596719 0.052,0.212241 0.1008,0.25386 0.3459,0.324467 0.2446,0.07061 0.6792,0.07373 1.2093,-0.02117 1.0603,-0.189773 2.4797,-0.736225 3.7833,-1.337033 0.4166,-0.191962 0.6391,-0.33397 1.0212,-0.526485 z m -2.7113,-91.453454 c -0.1242,0.0167 -0.3256,0.10573 -0.4354,0.27227 -0.1104,0.16653 -0.1116,0.32791 -0.1021,0.42329 0.02,0.19078 0.068,0.25028 0.1068,0.32136 0.039,0.0711 0.081,0.13504 0.1276,0.20265 0.095,0.13522 0.2151,0.28703 0.3593,0.46495 0.044,0.0542 0.144,0.17372 0.1925,0.23247 0.5716,1.53869 1.0049,3.76816 1.5462,5.77951 0.3076,1.14301 0.65,2.16144 1.2375,2.8823 0.2938,0.36043 0.6742,0.65216 1.1383,0.76144 0.4641,0.10922 0.9699,0.0191 1.4578,-0.22812 0.5705,-0.28912 0.8993,-0.89719 0.9156,-1.48497 0.017,-0.58777 -0.1764,-1.17431 -0.4636,-1.79203 -0.5215,-1.12174 -1.43,-2.34542 -2.3317,-3.50079 5.4277,4.99193 9.6767,11.60538 15.6228,16.42668 1.4431,1.17003 3.7756,1.33568 6.1193,1.51729 2.3436,0.18162 4.7225,0.34819 5.9685,0.97963 0.1614,0.0818 0.646,0.45138 1.2033,0.88824 0.5572,0.43685 1.2264,0.95073 1.9514,1.38366 0.7249,0.43292 1.5072,0.79423 2.3299,0.88327 0.8225,0.089 1.7054,-0.14521 2.3893,-0.83852 0.2897,-0.29348 0.3552,-0.70984 0.3293,-1.01754 -0.026,-0.3077 -0.1127,-0.56855 -0.1833,-0.8006 -0.07,-0.23205 -0.1249,-0.43567 -0.1344,-0.54762 -0.012,-0.11199 -10e-5,-0.0706 -0.012,-0.0634 -0.012,0.007 -0.048,0.002 0.063,0.012 0.1103,0.01 0.3113,0.0646 0.5403,0.13612 0.2289,0.0716 0.4869,0.15962 0.7905,0.18586 0.3036,0.0262 0.7137,-0.0404 1.0033,-0.33379 0.7642,-0.77458 1.0592,-1.77654 1.3425,-2.67097 0.2834,-0.89442 0.5555,-1.68175 1.0543,-2.18736 0.015,-0.0152 -0.012,-0.0144 0.088,-0.0137 0.095,7.1e-4 0.2709,0.0352 0.4819,0.0914 0.422,0.11222 1.0206,0.36505 1.6712,0.0355 0.5611,-0.28434 1.0256,-0.79908 1.5161,-1.43524 0.4905,-0.63615 0.9814,-1.40181 1.4436,-2.18301 0.9245,-1.56239 1.7322,-3.19543 2.0981,-3.93714 1.0936,-2.21678 0.6833,-3.89247 0.5421,-5.23934 -0.1409,-1.34686 -0.1368,-2.41484 1.7429,-4.32004 0.2317,-0.23485 0.2317,-0.61549 0,-0.85033 -0.2316,-0.23474 -0.6072,-0.23474 -0.8389,0 -2.0626,2.09053 -2.2391,3.81713 -2.084,5.29778 0.1551,1.48067 0.5181,2.66469 -0.4236,4.57364 -0.365,0.73964 -1.1605,2.34749 -2.054,3.85757 -0.4467,0.75503 -0.9183,1.48417 -1.3609,2.05807 -0.4424,0.57389 -0.8817,0.98518 -1.1125,1.10207 -0.064,0.0324 -0.3826,-0.001 -0.8389,-0.12245 -0.2282,-0.0607 -0.4808,-0.12895 -0.7765,-0.13115 -0.2957,-0.002 -0.6666,0.095 -0.934,0.36612 -0.7643,0.77456 -1.061,1.77714 -1.3443,2.67157 -0.2834,0.89443 -0.5535,1.68116 -1.0524,2.18675 0.012,-0.007 0.045,-0.005 -0.065,-0.0137 -0.1103,-0.01 -0.3114,-0.0652 -0.5403,-0.13675 -0.2289,-0.0716 -0.4844,-0.15901 -0.788,-0.18524 -0.3036,-0.0262 -0.7137,0.0422 -1.0033,0.33566 -0.2896,0.29349 -0.3577,0.70984 -0.3318,1.01754 0.026,0.3077 0.1127,0.56668 0.1833,0.79873 0.071,0.23206 0.125,0.43506 0.1344,0.54701 0.012,0.11198 0.012,0.0731 0.014,0.0659 -0.4407,0.44663 -0.872,0.55343 -1.4253,0.49354 -0.5532,-0.0599 -1.2073,-0.33844 -1.8521,-0.72352 -0.6448,-0.38508 -1.2797,-0.86866 -1.8288,-1.29912 -0.5491,-0.43046 -0.9733,-0.79752 -1.3977,-1.01256 -1.6652,-0.84387 -4.0861,-0.92394 -6.4088,-1.10394 -2.3229,-0.18 -4.5257,-0.49138 -5.4705,-1.25746 -6.9281,-5.6176 -11.5284,-14.26857 -19.2135,-19.46127 -0.1986,-0.13416 -0.3347,-0.22394 -0.4981,-0.29402 -0.082,-0.035 -0.1505,-0.0987 -0.3985,-0.0653 z m 2.0447,4.08073 c 0.2052,0.24923 0.3337,0.39113 0.5421,0.65329 0.9726,1.22374 1.931,2.56137 2.4201,3.61328 0.2446,0.52595 0.36,0.97809 0.3526,1.24504 -0.012,0.26693 -0.033,0.3281 -0.2624,0.44381 -0.311,0.15759 -0.5043,0.17047 -0.6581,0.13426 -0.1538,-0.0362 -0.3107,-0.13591 -0.4913,-0.35741 -0.361,-0.44301 -0.7166,-1.34814 -1.0082,-2.43165 -0.2834,-1.05317 -0.6285,-2.13005 -0.8948,-3.30062 z m 63.281,-96.61386 c -0.1395,0.0129 -0.2796,0.0559 -0.3655,0.1324 -0.1717,0.153 -0.1961,0.27878 -0.2225,0.37606 -0.053,0.19453 -0.056,0.35745 -0.056,0.58492 0,1.41882 -0.7753,3.86893 -1.1867,5.95354 -0.2056,1.0423 -0.3357,1.99979 -0.1459,2.83321 0.095,0.41671 0.2893,0.81996 0.6304,1.10642 0.085,0.0712 0.2239,0.0528 0.322,0.10573 -0.063,1.82137 -0.1306,3.40796 -0.1784,5.36802 -0.094,3.83087 -0.1422,7.69435 -0.072,10.71056 0.036,1.50812 0.099,2.80291 0.2035,3.78919 0.052,0.49313 0.1163,0.90845 0.1975,1.25002 0.081,0.34156 0.1297,0.60622 0.403,0.88327 1.4784,1.49832 3.4409,1.65817 5.2453,0.94917 1.8045,-0.70902 3.5366,-2.20801 4.9818,-4.05275 1.4451,-1.84473 2.5984,-4.04011 3.1639,-6.2022 0.5656,-2.16207 0.552,-4.32651 -0.4869,-6.01137 -3.4716,-5.62951 -7.5445,-10.80698 -11.3464,-16.13266 -0.045,-0.16007 -0.083,-0.45543 -0.1275,-0.58988 -0.068,-0.20498 -0.1317,-0.37724 -0.2036,-0.52835 -0.072,-0.15103 -0.059,-0.29246 -0.3938,-0.4749 h -6e-4 c -0.084,-0.0455 -0.2219,-0.0632 -0.3613,-0.0504 z m 0.4128,4.13355 h 6e-4 c 0.047,0.27022 0.1068,0.40673 0.146,0.6881 0.1952,1.38512 0.2853,2.8719 0.1484,3.93526 -0.069,0.53168 -0.2009,0.95037 -0.3434,1.17728 -0.057,0.0914 -0.1191,0.0688 -0.1669,0.11006 0.047,-1.32311 0.09,-2.92463 0.1343,-4.02415 0.031,-0.77436 0.055,-1.26606 0.081,-1.88651 z m 1.2965,0.39097 c 3.3441,4.58564 6.7645,9.10006 9.7187,13.89061 0.795,1.28926 0.8588,3.10161 0.3453,5.06469 -0.5135,1.96306 -1.5964,4.03961 -2.9463,5.76272 -1.3499,1.72311 -2.9709,3.08602 -4.4806,3.67918 -1.5096,0.59317 -2.8193,0.49474 -3.9772,-0.67877 0.087,0.0882 -0.027,-0.0539 -0.088,-0.31266 -0.062,-0.25884 -0.1223,-0.63685 -0.1717,-1.09958 -0.099,-0.92546 -0.1621,-2.19828 -0.1968,-3.68789 -0.07,-2.97921 -0.024,-6.8338 0.07,-10.65461 0.046,-1.89755 0.1128,-3.42695 0.1735,-5.19895 0.4898,-0.0849 0.9585,-0.30852 1.2101,-0.70924 0.2943,-0.46888 0.438,-1.03615 0.5194,-1.66833 0.1627,-1.26437 0.053,-2.81297 -0.1508,-4.2616 -0.012,-0.0506 -0.019,-0.0766 -0.026,-0.12557 z m -51.9709,-4.50338 -0.012,6.1e-4 c -0.066,0.006 -0.1286,0.0213 -0.1797,0.0479 v -6.1e-4 c -0.2037,0.10657 -0.2563,0.22366 -0.3059,0.31265 -0.1,0.17801 -0.1434,0.33707 -0.1994,0.56379 -0.3514,1.4248 -1.7314,3.67839 -2.6561,5.65706 -0.4624,0.98933 -0.8281,1.91495 -0.8439,2.79092 -0.012,0.43798 0.087,0.88611 0.3552,1.25499 0.084,0.11643 0.2606,0.14178 0.3727,0.23434 -0.2538,0.96811 -0.4908,1.73453 -0.7346,2.73746 -0.7586,3.12123 -1.4251,6.30206 -1.7337,8.90858 -0.1543,1.30326 -0.2211,2.4592 -0.1553,3.41811 0.065,0.95889 0.2265,1.74733 0.7599,2.28806 0.1699,0.17209 0.4045,0.31172 0.663,0.33628 0.2584,0.0245 0.4945,-0.063 0.6697,-0.17404 0.3505,-0.22202 0.5623,-0.53038 0.7788,-0.85966 0.4307,-0.65477 0.8597,-1.45591 1.1199,-1.72366 0.012,9e-4 0.019,0.002 0.068,0.006 0.1104,0.01 0.3113,0.0646 0.5402,0.13613 0.229,0.0716 0.4871,0.1596 0.7907,0.18585 0.3036,0.0262 0.7137,-0.0403 1.0033,-0.33379 0.2896,-0.2935 0.3553,-0.70923 0.3293,-1.01691 -0.026,-0.30769 -0.1127,-0.56917 -0.1833,-0.80123 -0.071,-0.23204 -0.125,-0.43568 -0.1344,-0.54761 v -0.0559 c 0.012,9.7e-4 0.015,7.5e-4 0.055,0.005 0.1104,0.01 0.3114,0.0646 0.5403,0.13613 0.229,0.0716 0.487,0.15899 0.7906,0.18523 0.3035,0.0262 0.7137,-0.0397 1.0033,-0.33317 0.7511,-0.76133 0.7914,-1.82057 0.6654,-2.76295 -0.1261,-0.9424 -0.4073,-1.87535 -0.4962,-2.59575 -0.5995,-4.86045 -1.3459,-9.69029 -2.0465,-14.52152 0.031,-0.77521 0.1033,-1.6752 0.065,-2.18673 -0.017,-0.22156 -0.04,-0.41001 -0.074,-0.57808 -0.034,-0.16806 0.012,-0.30594 -0.2735,-0.56627 -0.1057,-0.0977 -0.3473,-0.16444 -0.5477,-0.14669 z m -0.3797,4.07014 c -0.021,0.34034 0.012,0.52994 -0.027,0.88577 -0.1465,1.43558 -0.4227,2.94779 -0.823,3.97939 -0.2001,0.51579 -0.4355,0.90324 -0.6372,1.0971 -0.064,0.0618 -0.1103,0.0231 -0.1601,0.0541 0.4315,-1.60725 0.8812,-3.38514 1.2517,-4.66812 0.1579,-0.54656 0.261,-0.8892 0.3962,-1.34822 z m 0.6017,3.65928 c 0.5094,3.47206 1.0415,6.94528 1.4701,10.42029 0.1092,0.88639 0.3917,1.80894 0.4986,2.60755 0.1068,0.79377 0.05,1.35933 -0.3232,1.74293 -0.012,-0.001 -0.021,-0.002 -0.071,-0.007 -0.1104,-0.01 -0.3113,-0.0646 -0.5403,-0.13612 -0.229,-0.0716 -0.4845,-0.15962 -0.7881,-0.18585 -0.3035,-0.0262 -0.7138,0.0428 -1.0033,0.33627 -0.2895,0.29347 -0.3577,0.70674 -0.3318,1.01443 0.026,0.3077 0.1128,0.56915 0.1834,0.80122 0.07,0.23205 0.1249,0.43566 0.1343,0.54762 0,0.0416 0.012,0.0485 0.012,0.0579 -0.012,-0.001 -0.018,-0.002 -0.059,-0.006 -0.1103,-0.01 -0.3114,-0.0646 -0.5403,-0.13613 -0.2289,-0.0716 -0.4844,-0.1596 -0.788,-0.18585 -0.3036,-0.0262 -0.7145,0.0428 -1.004,0.33628 -0.5393,0.54659 -0.9063,1.35609 -1.2719,1.91201 -0.1396,0.21217 -0.2387,0.30764 -0.3202,0.38787 -0.1447,-0.19716 -0.3278,-0.62912 -0.3802,-1.39298 -0.057,-0.83346 -5e-4,-1.93456 0.1484,-3.1931 0.298,-2.51705 0.9562,-5.66926 1.7086,-8.76499 0.2313,-0.95167 0.4561,-1.68065 0.6974,-2.6032 0.4769,0.012 0.969,-0.0594 1.2982,-0.37607 0.4069,-0.39125 0.6906,-0.92146 0.9273,-1.53158 0.1814,-0.46746 0.2176,-1.09674 0.3435,-1.64535 z m 2.2213,162.788614 c -0.3163,-0.09178 -0.6458,0.09478 -0.7347,0.415847 -1.6734,5.974562 -5.1554,11.454598 -8.4584,17.055725 0.2147,0.446351 0.4304,0.891753 0.6445,1.338272 3.4111,-5.812141 7.15,-11.588691 8.9645,-18.06704 0.089,-0.319246 -0.093,-0.651664 -0.4079,-0.742804 z m -9.9125,18.72158 c -2.0208,3.487489 -3.9465,7.023646 -5.1932,10.81436 -1.3419,4.080408 -0.9415,8.461225 -2.3826,12.112867 -1.6551,4.193703 -5.5328,7.521828 -7.1976,12.161966 -1.7289,4.818641 -0.9954,10.079584 -2.4034,14.598589 -6.0821,19.5207523 -9.1115,28.2554052 -10.5632,31.561069 -0.1213,0.27617 -0.1592,0.29555 -0.2594,0.497891 0,-0.218392 5e-4,-0.413513 0.012,-0.643963 0.012,-0.45669 0.025,-0.910537 0.012,-1.2966308 -0.012,-0.1930468 -0.019,-0.367393 -0.049,-0.535808 -0.03,-0.1684162 -0.027,-0.3433169 -0.2637,-0.5755885 -0.1188,-0.1161345 -0.3549,-0.2129226 -0.552,-0.1902057 -0.197,0.022722 -0.3197,0.1103128 -0.4079,0.1858538 -0.1765,0.1510917 -0.2688,0.3048921 -0.3869,0.5140522 -0.2361,0.4183215 -0.5139,1.057617 -0.8905,2.046265 -1.5067,3.954591 -4.5226,13.447459 -10.6135,34.025039 -2.1599,7.297588 -3.6188,12.405075 -4.5457,15.857923 -0.927,3.452847 -1.3266,5.169039 -1.3694,6.011988 0,0.105369 -0.012,0.199643 0.012,0.310171 0.015,0.110529 0.018,0.264847 0.2203,0.453137 0.1009,0.09415 0.2708,0.165661 0.417,0.169071 0.1462,0.0034 0.2552,-0.03963 0.3294,-0.07957 0.1486,-0.07986 0.2062,-0.153563 0.2666,-0.225635 0.2418,-0.288286 0.4248,-0.665358 0.6882,-1.212094 0.527,-1.093474 1.2293,-2.756337 1.9472,-4.482885 0.1925,-0.462852 0.3509,-0.830488 0.5421,-1.291657 -0.7541,2.676331 -1.676,5.861908 -3.2983,11.205967 -1.9847,6.537716 -5.2413,12.722679 -7.1901,19.438265 -7.6576,26.388669 -12.6336,53.644639 -19.1786,80.179109 -1.5168,6.14972 -1.5031,14.52478 -1.1309,22.97882 0.3722,8.45403 1.1125,16.98277 1.1125,23.31696 2e-4,0.33213 0.2659,0.60123 0.5937,0.60107 0.3275,-1.8e-4 0.5928,-0.26918 0.5931,-0.60107 0,-6.42879 -0.7444,-14.9523 -1.115,-23.37104 -0.3705,-8.41874 -0.3553,-16.73717 1.0989,-22.63322 6.5571,-26.58326 11.53,-53.82368 19.1646,-80.132486 1.9029,-6.557496 5.1581,-12.738225 7.1877,-19.423968 1.9082,-6.285621 3.1441,-10.504952 3.8826,-13.200639 0.3694,-1.347843 0.6142,-2.313845 0.758,-2.97678 0.072,-0.331468 0.119,-0.586694 0.1436,-0.791901 0.012,-0.102602 0.02,-0.191391 0.019,-0.288416 0,-0.09702 0.021,-0.195802 -0.1092,-0.409005 -0.065,-0.106608 -0.2187,-0.249936 -0.4054,-0.289037 -0.1868,-0.0391 -0.3374,0.01478 -0.4244,0.06091 -0.1739,0.09226 -0.2149,0.170086 -0.2691,0.239934 -0.108,0.139697 -0.1901,0.285882 -0.292,0.479243 -0.2035,0.386721 -0.4554,0.934726 -0.7463,1.599964 -0.5817,1.330475 -1.3144,3.118886 -2.0306,4.841539 -0.2445,0.587828 -0.4219,0.957499 -0.6556,1.508591 0.1815,-0.735038 0.1194,-0.673716 0.3869,-1.670203 0.922,-3.434622 2.378,-8.535227 4.5365,-15.827464 6.0886,-20.570342 9.1154,-30.084712 10.5834,-33.938018 0.1104,-0.290318 0.1525,-0.338373 0.246,-0.566266 -0.012,0.442697 -0.024,0.897642 -0.012,1.299117 0.013,0.415267 -0.015,0.726068 0.211,1.125071 0.057,0.09975 0.1434,0.221174 0.2993,0.308307 0.1558,0.08713 0.3717,0.104684 0.528,0.0634 0.3124,-0.08256 0.4362,-0.253355 0.5728,-0.430138 0.2733,-0.353568 0.5456,-0.881802 0.9248,-1.745416 1.517,-3.4544541 4.5238,-12.15626093 10.6093,-31.687873 1.5184,-4.873585 0.795,-10.110743 2.3874,-14.548864 1.5188,-4.233421 5.3781,-7.554172 7.1828,-12.127156 1.5845,-4.014636 1.1742,-8.426078 2.4084,-12.178759 1.1189,-3.402063 2.8532,-6.64131 4.702,-9.858989 -0.2135,-0.445822 -0.4295,-0.890261 -0.6434,-1.335782 z m 20.5333,-310.215954 c -75.1239,0 -135.9949,66.09052 -135.9949,147.5529 0,76.9751 54.3584,140.189503 123.7269,146.923853 10e-5,2.4e-5 3e-4,-2.4e-5 6e-4,0 0.1438,-0.389384 0.2866,-0.779154 0.4164,-1.172315 -68.885,-6.518187 -122.9573,-69.237318 -122.9573,-145.751538 0,-80.85529 60.3712,-146.35013 134.8083,-146.35013 74.4373,0 134.8102,65.49484 134.8102,146.35013 0,80.8553 -60.3729,146.347643 -134.8102,146.347643 -3.5783,0 -7.1125,-0.197026 -10.6208,-0.494164 -0.1263,0.395266 -0.2776,0.781271 -0.417,1.17169 3.6445,0.31796 7.3178,0.525246 11.0378,0.525246 75.124,0 135.997,-66.088045 135.997,-147.550415 0,-81.46238 -60.873,-147.5529 -135.997,-147.5529 z" />
    <rect
       style="fill:url(#linearGradient43);stroke:none;stroke-width:0.426612;stroke-linecap:round;stroke-linejoin:round;paint-order:markers stroke fill"
       id="rect39"
       width="256"
       height="256"
       x="-880.42944"
       y="2696.2661"
       transform="rotate(90)"
       inkscape:export-filename="../furto/assets/ui/text_bg.png"
       inkscape:export-xdpi="96"
       inkscape:export-ydpi="96" />
  </g>
</svg>
